<?xml version="1.0" encoding="UTF-8" standalone="no"?>
<!-- Created with Inkscape (http://www.inkscape.org/) -->

<svg
   version="1.1"
   id="svg2"
   width="755.8125"
   height="144.144"
   viewBox="0 0 755.8125 144.144"
   sodipodi:docname="Cal Poly Brand Guidelines Logo.svg"
   inkscape:version="1.2.1 (9c6d41e410, 2022-07-14)"
   xmlns:inkscape="http://www.inkscape.org/namespaces/inkscape"
   xmlns:sodipodi="http://sodipodi.sourceforge.net/DTD/sodipodi-0.dtd"
   xmlns="http://www.w3.org/2000/svg"
   xmlns:svg="http://www.w3.org/2000/svg">
  <defs
     id="defs6">
    <clipPath
       clipPathUnits="userSpaceOnUse"
       id="clipPath20">
      <path
         d="M 0,1080 H 1920 V 0 H 0 Z"
         id="path18" />
    </clipPath>
    <clipPath
       clipPathUnits="userSpaceOnUse"
       id="clipPath88">
      <path
         d="M 0,1080 H 1920 V 0 H 0 Z"
         id="path86" />
    </clipPath>
    <clipPath
       clipPathUnits="userSpaceOnUse"
       id="clipPath112">
      <path
         d="M 0,0 H 1920 V 1080 H 0 Z"
         id="path110" />
    </clipPath>
    <clipPath
       clipPathUnits="userSpaceOnUse"
       id="clipPath196">
      <path
         d="M 0,0 H 1920 V 1080 H 0 Z"
         id="path194" />
    </clipPath>
    <clipPath
       clipPathUnits="userSpaceOnUse"
       id="clipPath204">
      <path
         d="M 1140.51,286.887 H 1658 v -2.769 h -517.49 z"
         id="path202" />
    </clipPath>
    <clipPath
       clipPathUnits="userSpaceOnUse"
       id="clipPath222">
      <path
         d="m 1127,152.233 h 531 v -2.769 h -531 z"
         id="path220" />
    </clipPath>
    <clipPath
       clipPathUnits="userSpaceOnUse"
       id="clipPath240">
      <path
         d="m 1127,346.002 h 531 v -2.769 h -531 z"
         id="path238" />
    </clipPath>
    <clipPath
       clipPathUnits="userSpaceOnUse"
       id="clipPath258">
      <path
         d="m 1127,212.117 h 531 v -2.769 h -531 z"
         id="path256" />
    </clipPath>
    <clipPath
       clipPathUnits="userSpaceOnUse"
       id="clipPath316">
      <path
         d="m 1585.88,353 h 2.77 V 141 h -2.77 z"
         id="path314" />
    </clipPath>
    <clipPath
       clipPathUnits="userSpaceOnUse"
       id="clipPath334">
      <path
         d="m 1136.52,353 h 2.77 V 141 h -2.77 z"
         id="path332" />
    </clipPath>
    <clipPath
       clipPathUnits="userSpaceOnUse"
       id="clipPath352">
      <path
         d="m 1644.97,353 h 2.76 V 141 h -2.76 z"
         id="path350" />
    </clipPath>
    <clipPath
       clipPathUnits="userSpaceOnUse"
       id="clipPath370">
      <path
         d="m 1195.61,353 h 2.77 V 141 h -2.77 z"
         id="path368" />
    </clipPath>
    <clipPath
       clipPathUnits="userSpaceOnUse"
       id="clipPath388">
      <path
         d="m 1136.74,345.619 h 61.25 v -60.115 h -61.25 z"
         id="path386" />
    </clipPath>
    <clipPath
       clipPathUnits="userSpaceOnUse"
       id="clipPath410">
      <path
         d="m 1136.74,345.619 h 61.25 v -60.115 h -61.25 z"
         id="path408" />
    </clipPath>
    <clipPath
       clipPathUnits="userSpaceOnUse"
       id="clipPath432">
      <path
         d="m 1586.65,345.619 h 60.32 v -61.115 h -60.32 z"
         id="path430" />
    </clipPath>
    <clipPath
       clipPathUnits="userSpaceOnUse"
       id="clipPath454">
      <path
         d="m 1586.65,345.619 h 60.32 v -61.115 h -60.32 z"
         id="path452" />
    </clipPath>
    <clipPath
       clipPathUnits="userSpaceOnUse"
       id="clipPath476">
      <path
         d="m 1586.65,211.117 h 60.32 v -61.269 h -60.32 z"
         id="path474" />
    </clipPath>
    <clipPath
       clipPathUnits="userSpaceOnUse"
       id="clipPath498">
      <path
         d="m 1586.65,211.117 h 60.32 v -61.269 h -60.32 z"
         id="path496" />
    </clipPath>
    <clipPath
       clipPathUnits="userSpaceOnUse"
       id="clipPath520">
      <path
         d="m 1136.74,209.965 h 61.25 V 149.85 h -61.25 z"
         id="path518" />
    </clipPath>
    <clipPath
       clipPathUnits="userSpaceOnUse"
       id="clipPath542">
      <path
         d="m 1136.74,209.965 h 61.25 V 149.85 h -61.25 z"
         id="path540" />
    </clipPath>
    <clipPath
       clipPathUnits="userSpaceOnUse"
       id="clipPath630">
      <path
         d="M 0,0 H 1920 V 1080 H 0 Z"
         id="path628" />
    </clipPath>
    <clipPath
       clipPathUnits="userSpaceOnUse"
       id="clipPath646">
      <path
         d="M 0,0 H 1920 V 1080 H 0 Z"
         id="path644" />
    </clipPath>
    <pattern
       id="EMFhbasepattern"
       patternUnits="userSpaceOnUse"
       width="6"
       height="6"
       x="0"
       y="0" />
  </defs>
  <sodipodi:namedview
     id="namedview4"
     pagecolor="#ffffff"
     bordercolor="#000000"
     borderopacity="0.25"
     inkscape:showpageshadow="2"
     inkscape:pageopacity="0.0"
     inkscape:pagecheckerboard="0"
     inkscape:deskcolor="#d1d1d1"
     showgrid="false"
     inkscape:zoom="0.48710938"
     inkscape:cx="920.73777"
     inkscape:cy="424.95589"
     inkscape:window-width="1920"
     inkscape:window-height="1017"
     inkscape:window-x="-8"
     inkscape:window-y="-8"
     inkscape:window-maximized="1"
     inkscape:current-layer="g10">
    <inkscape:page
       x="0"
       y="0"
       id="page8"
       width="755.8125"
       height="144.144" />
  </sodipodi:namedview>
  <g
     id="g10"
     inkscape:groupmode="layer"
     inkscape:label="Page 1"
     transform="matrix(1.3333333,0,0,-1.3333333,-149.11442,1318.5431)">
    <g
       id="g106"
       transform="translate(-988.48438,190.92222)">
      <g
         id="g108"
         clip-path="url(#clipPath112)">
        <g
           id="g114"
           transform="translate(1100.3202,691.8647)">
          <path
             d="m 0,0 c 3.388,8.298 4.672,13.089 4.672,24.423 v 36.23 C 4.672,72.105 3.388,76.781 0,85.08 v 0.233 H 30.384 V 85.08 C 26.995,76.781 25.592,71.871 25.592,60.653 V 44.761 h 33.542 v 15.892 c 0,11.337 -1.283,16.128 -4.79,24.427 v 0.233 H 84.727 V 85.08 C 81.458,76.781 80.055,71.871 80.055,60.653 V 24.423 C 80.055,13.208 81.458,8.298 84.727,0 V -0.234 H 54.344 V 0 c 3.507,8.298 4.79,13.089 4.79,24.423 V 42.074 H 25.592 V 24.423 C 25.592,13.208 26.995,8.298 30.384,0 V -0.234 H 0 Z"
             style="fill:#00453f;fill-opacity:1;fill-rule:nonzero;stroke:none"
             id="path116" />
        </g>
        <g
           id="g118"
           transform="translate(1210.3975,689.8771)">
          <path
             d="M 0,0 C -10.05,0 -15.776,7.363 -15.776,18.582 V 45.11 c 0,7.015 -1.752,9.935 -4.439,13.208 v 0.35 h 23.14 v -40.2 c 0,-4.796 2.219,-8.767 7.477,-8.767 3.857,0 6.662,2.454 8.533,5.727 v 29.801 c 0,7.01 -1.637,10.05 -4.442,13.204 v 0.235 H 37.747 V 26.064 c 0,-13.089 1.637,-16.247 5.845,-20.452 V 5.377 L 19.518,0.119 v 12.737 l -0.349,0.119 C 16.597,8.065 10.284,0 0,0"
             style="fill:#00453f;fill-opacity:1;fill-rule:nonzero;stroke:none"
             id="path120" />
        </g>
        <g
           id="g122"
           transform="translate(1285.1851,691.6307)">
          <path
             d="m 0,0 h -24.427 v 0.234 c 1.751,5.726 2.806,10.403 2.806,20.334 v 13.205 c 0,8.65 -1.752,13.675 -5.842,18.585 v 0.234 l 24.189,6.777 V 47.682 l 0.468,-0.115 c 2.925,5.14 9.115,11.215 18.816,11.215 8.413,0 14.374,-4.204 16.011,-11.1 l 0.352,-0.115 c 3.036,5.14 9.23,11.215 18.931,11.215 9.935,0 16.359,-6.075 16.359,-15.776 V 20.682 c 0,-9.931 0.939,-14.722 2.806,-20.448 V 0 H 46.16 v 0.234 c 1.871,5.726 2.806,10.752 2.806,20.218 v 21.737 c 0,4.439 -1.871,7.831 -6.781,7.831 -3.971,0 -7.593,-2.338 -9.812,-6.079 V 20.682 c 0,-9.931 0.931,-14.722 2.921,-20.448 V 0 H 10.87 v 0.234 c 1.986,5.726 2.802,10.752 2.802,20.218 v 21.737 c 0,4.439 -1.87,7.831 -6.776,7.831 -3.975,0 -7.597,-2.338 -9.702,-6.079 V 20.568 C -2.806,10.87 -1.986,5.96 0,0.234 Z"
             style="fill:#00453f;fill-opacity:1;fill-rule:nonzero;stroke:none"
             id="path124" />
        </g>
        <g
           id="g126"
           transform="translate(1374.2261,695.7194)">
          <path
             d="m 0,0 -7.014,-4.438 h -1.165 v 65.796 c 0,8.762 -1.637,13.672 -5.845,18.582 v 0.23 l 24.657,6.781 V 45.463 h 0.353 c 3.388,4.557 9.467,9.234 18.229,9.234 13.791,0 22.791,-11.687 22.791,-29.219 C 52.006,7.831 41.837,-5.841 20.219,-5.841 10.986,-5.841 4.209,-3.154 0,0 m 32.488,21.856 c -0.118,16.478 -4.672,23.373 -13.323,23.373 -3.623,0 -6.543,-1.169 -8.532,-2.571 V 14.492 c 0,-13.323 5.611,-18.229 10.87,-18.229 7.946,0 10.985,10.403 10.985,25.593"
             style="fill:#00453f;fill-opacity:1;fill-rule:nonzero;stroke:none"
             id="path128" />
        </g>
        <g
           id="g130"
           transform="translate(1432.3,720.0292)">
          <path
             d="M 0,0 C 0,16.244 14.255,30.383 31.438,30.383 48.613,30.383 62.872,16.244 62.872,0 62.872,-16.244 48.613,-30.15 31.438,-30.15 14.255,-30.15 0,-16.244 0,0 m 43.474,0 c 0,16.597 -3.741,28.164 -12.036,28.164 -8.414,0 -12.039,-11.567 -12.039,-28.164 0,-16.597 3.741,-27.931 12.039,-27.931 8.295,0 12.036,11.334 12.036,27.931"
             style="fill:#00453f;fill-opacity:1;fill-rule:nonzero;stroke:none"
             id="path132" />
        </g>
        <g
           id="g134"
           transform="translate(1501.4771,691.8647)">
          <path
             d="m 0,0 c 1.637,4.672 2.806,8.766 2.806,18.115 v 47.099 c 0,8.762 -1.637,13.672 -5.845,18.578 v 0.234 l 24.661,6.777 V 18.115 C 21.622,9 22.787,4.672 24.427,0 V -0.234 H 0 Z"
             style="fill:#00453f;fill-opacity:1;fill-rule:nonzero;stroke:none"
             id="path136" />
        </g>
        <g
           id="g138"
           transform="translate(1554.064,689.8782)">
          <path
             d="m 0,0 c -13.319,0 -21.97,11.337 -21.97,27.581 0,17.648 10.521,32.956 30.736,32.956 4.09,0 7.597,-0.586 10.403,-1.521 v 8.064 c 0,8.881 -1.636,13.792 -5.846,18.702 v 0.23 l 24.662,6.78 V 26.294 c 0,-13.089 2.101,-16.478 5.96,-20.687 V 5.374 L 19.518,0.115 v 11.456 h -0.23 C 15.777,5.607 9.353,0 0,0 m 19.169,13.906 v 32.139 c -1.054,8.413 -4.324,12.388 -9.348,12.388 -7.363,0 -12.389,-8.298 -12.389,-26.179 0,-15.309 4.205,-22.672 11.802,-22.672 3.856,0 7.716,1.755 9.935,4.324"
             style="fill:#00453f;fill-opacity:1;fill-rule:nonzero;stroke:none"
             id="path140" />
        </g>
        <g
           id="g142"
           transform="translate(1647.5476,700.8635)">
          <path
             d="m 0,0 c 0,5.377 4.438,9.816 9.816,9.816 5.378,0 9.816,-4.439 9.816,-9.816 0,-5.378 -4.438,-9.816 -9.816,-9.816 C 4.438,-9.816 0,-5.378 0,0"
             style="fill:#00453f;fill-opacity:1;fill-rule:nonzero;stroke:none"
             id="path144" />
        </g>
        <g
           id="g146"
           transform="translate(1641.7102,699.3442)">
          <path
             d="m 0,0 c -0.119,-0.119 -2.572,-1.985 -6.662,-1.985 -4.676,0 -8.413,2.219 -8.413,9.23 v 27.348 h 13.906 v 2.572 h -13.906 v 25.224 h -1.288 L -33.895,51.412 V 34.593 22.504 6.777 c 0,-11.687 6.666,-16.244 16.129,-16.244 9.234,0 15.543,4.557 18.115,9.115 z"
             style="fill:#00453f;fill-opacity:1;fill-rule:nonzero;stroke:none"
             id="path148" />
        </g>
        <g
           id="g150"
           transform="translate(1329.4404,755.0901)">
          <path
             d="M 0,0 H 7.26 L 19.088,32.998 H 11.269 L 7.463,17.309 H 7.106 L 3.246,32.998 H -4.672 L 3.652,9.847 Z m -6.417,8.881 c -0.203,2.032 -0.455,5.029 -0.455,7.413 v 26.094 h -7.414 c 0.357,-3.909 0.457,-6.902 0.457,-9.39 V 8.881 Z m -21.725,19.038 c 2.745,0 4.317,-2.437 4.317,-7.007 0,-4.568 -1.572,-7.056 -4.317,-7.056 -2.79,0 -4.312,2.488 -4.312,7.056 0,4.57 1.522,7.007 4.312,7.007 m 0,5.585 c -6.903,0 -11.066,-5.025 -11.066,-12.592 0,-7.512 4.213,-12.537 11.066,-12.537 6.804,0 11.07,5.075 11.07,12.537 0,7.567 -4.217,12.592 -11.07,12.592 m -23.051,2.894 c 2.538,0 4.213,-1.878 4.213,-4.822 0,-2.894 -1.622,-4.876 -4.213,-4.876 h -4.009 v 9.698 z M -55.202,8.881 V 20.66 h 4.568 c 6.447,0 10.56,4.315 10.56,11.015 0,6.398 -4.216,10.713 -10.866,10.713 H -62.565 V 8.881 Z m -18.122,0 c -0.204,2.032 -0.46,5.029 -0.46,7.413 v 26.094 h -7.41 c 0.353,-3.909 0.456,-6.902 0.456,-9.39 V 8.881 Z m -17.594,12.695 v -3.81 c 0,-2.894 -1.621,-4.619 -3.756,-4.619 -1.472,0 -2.538,0.966 -2.538,2.438 0,1.571 1.12,2.537 3.097,3.35 1.576,0.659 2.438,1.422 3.197,2.641 m -0.149,-9.242 h 0.456 l 0.253,-3.453 h 6.803 c -0.406,1.829 -0.609,3.91 -0.609,7.007 v 9.188 c 0,5.231 -3.454,8.428 -8.984,8.428 -3.251,0 -6.705,-1.115 -9.039,-3.147 V 24.47 c 2.538,2.69 5.382,4.108 7.869,4.108 2.032,0 3.251,-0.961 3.251,-2.537 0,-1.674 -1.323,-2.79 -4.772,-3.553 -5.079,-1.169 -7.973,-3.706 -7.973,-7.616 0,-3.856 2.844,-6.497 6.551,-6.497 2.537,0 4.772,1.319 6.194,3.959 m -24.328,-3.959 c 3.756,0 7.007,1.169 9.495,3.4 v 7.313 c -2.388,-2.844 -5.382,-4.419 -8.479,-4.419 -5.228,0 -8.985,4.316 -8.985,10.966 0,6.551 3.604,10.966 8.881,10.966 3.151,0 6.095,-1.575 8.533,-4.415 v 7.309 c -2.541,2.234 -5.738,3.4 -9.445,3.4 -9.188,0 -15.431,-7.003 -15.431,-17.26 0,-10.303 6.243,-17.26 15.431,-17.26"
             style="fill:#008c70;fill-opacity:1;fill-rule:nonzero;stroke:none"
             id="path152" />
        </g>
        <g
           id="g154"
           transform="translate(306.5045,141.4844)" />
        <g
           id="g158"
           transform="translate(306.5045,141.4844)" />
      </g>
    </g>
  </g>
</svg>
