<svg xmlns="http://www.w3.org/2000/svg" width="48.457" height="48.457" viewBox="0 0 48.457 48.457">
  <g id="logo" transform="translate(-53.935 5.808)">
    <g id="Rectangle_95" data-name="Rectangle 95" transform="translate(78.163 -5.808) rotate(45)" fill="none" stroke="#FFC72C" stroke-width="1">
      <rect width="34.264" height="34.264" stroke="none"/>
      <rect x="0.5" y="0.5" width="33.264" height="33.264" fill="none"/>
    </g>
    <path id="Path_5091" data-name="Path 5091" d="M0-13.816a9.089,9.089,0,0,0,.8-4.162v-6.173A9.037,9.037,0,0,0,0-28.313v-.04H5.177v.04a9.139,9.139,0,0,0-.816,4.162v2.708h5.715v-2.708a8.825,8.825,0,0,0-.817-4.162v-.04h5.178v.04a9.41,9.41,0,0,0-.8,4.162v6.173a9.408,9.408,0,0,0,.8,4.162v.04H9.259v-.04a8.823,8.823,0,0,0,.817-4.162v-3.007H4.361v3.007a9.136,9.136,0,0,0,.816,4.162v.04H0Z" transform="translate(70 39.436)" fill="#FFC72C"/>
    <path id="Path_5092" data-name="Path 5092" d="M0-1.59A1.682,1.682,0,0,1,1.673-3.262,1.682,1.682,0,0,1,3.345-1.59,1.683,1.683,0,0,1,1.673.083,1.683,1.683,0,0,1,0-1.59" transform="translate(86.981 25.675)" fill="#FFC72C"/>
  </g>
</svg>
