<svg xmlns="http://www.w3.org/2000/svg" xmlns:xlink="http://www.w3.org/1999/xlink" width="262.171" height="50" viewBox="0 0 262.171 50">
  <defs>
    <clipPath id="clip-path">
      <path id="Path_5086" data-name="Path 5086" d="M0,14.071H262.171v-50H0Z" transform="translate(0 35.929)" fill="none"/>
    </clipPath>
  </defs>
  <g id="Logo" transform="translate(0 35.929)">
    <g id="Group_9879" data-name="Group 9879" transform="translate(0 -35.929)" clip-path="url(#clip-path)">
      <g id="Group_9871" data-name="Group 9871" transform="translate(0 9.624)">
        <path id="Path_5078" data-name="Path 5078" d="M0,11.1A24.67,24.67,0,0,0,2.161-.192V-16.947A24.529,24.529,0,0,0,0-28.244v-.109H14.053v.109a24.805,24.805,0,0,0-2.215,11.3V-9.6H27.35v-7.351a23.954,23.954,0,0,0-2.217-11.3v-.109H39.187v.109a25.542,25.542,0,0,0-2.163,11.3V-.192a25.535,25.535,0,0,0,2.163,11.3v.109H25.133V11.1A23.948,23.948,0,0,0,27.35-.192V-8.354H11.837V-.192a24.8,24.8,0,0,0,2.215,11.3v.109H0Z" transform="translate(0 28.353)" fill="#fff"/>
      </g>
      <g id="Group_9872" data-name="Group 9872" transform="translate(41.56 22.866)">
        <path id="Path_5079" data-name="Path 5079" d="M2.631,7.636c-4.648,0-7.3-3.405-7.3-8.595V-13.227a8.174,8.174,0,0,0-2.054-6.108V-19.5h10.7V-.9c0,2.217,1.026,4.054,3.458,4.054A4.584,4.584,0,0,0,11.388.5V-13.282c0-3.243-.756-4.649-2.054-6.108V-19.5H20.089v15.08c0,6.055.757,7.513,2.7,9.46v.107L11.658,7.582V1.691L11.5,1.637c-1.188,2.27-4.108,6-8.865,6" transform="translate(6.719 19.498)" fill="#fff"/>
      </g>
      <g id="Group_9873" data-name="Group 9873" transform="translate(72.798 21.73)">
        <path id="Path_5080" data-name="Path 5080" d="M3.574,7.727h-11.3V7.619a27.71,27.71,0,0,0,1.3-9.4V-7.892c0-4-.811-6.325-2.7-8.595V-16.6L2.062-19.731v5.405l.216.054a9.965,9.965,0,0,1,8.7-5.188c3.891,0,6.648,1.946,7.4,5.134l.163.054A10.13,10.13,0,0,1,27.3-19.46c4.6,0,7.568,2.81,7.568,7.3V-1.839a26.742,26.742,0,0,0,1.3,9.458v.109H24.925V7.619a26.936,26.936,0,0,0,1.3-9.35V-11.785c0-2.054-.864-3.621-3.135-3.621a5.358,5.358,0,0,0-4.54,2.81V-1.839A25.411,25.411,0,0,0,19.9,7.619v.109H8.6V7.619a25.7,25.7,0,0,0,1.3-9.35V-11.785c0-2.054-.866-3.621-3.134-3.621A5.21,5.21,0,0,0,2.277-12.6v10.81c0,4.487.379,6.756,1.3,9.4Z" transform="translate(9.127 19.731)" fill="#fff"/>
      </g>
      <g id="Group_9874" data-name="Group 9874" transform="translate(120.195 7.083)">
        <path id="Path_5081" data-name="Path 5081" d="M6.054,8.473C6,.851,3.893-2.338-.108-2.338a6.835,6.835,0,0,0-3.945,1.19V11.878c0,6.162,2.594,8.432,5.027,8.432,3.675,0,5.081-4.811,5.081-11.837M-8.972,18.58l-3.244,2.054h-.54V-9.8c0-4.054-.757-6.324-2.7-8.595V-18.5l11.4-3.135V-2.446h.163a10.389,10.389,0,0,1,8.432-4.27C10.918-6.716,15.08-1.311,15.08,6.8c0,8.162-4.7,14.486-14.7,14.486a15.514,15.514,0,0,1-9.35-2.7" transform="translate(15.458 21.634)" fill="#fff"/>
      </g>
      <g id="Group_9875" data-name="Group 9875" transform="translate(153.54 22.002)">
        <path id="Path_5082" data-name="Path 5082" d="M5.658,3.955C5.658-3.72,3.929-9.071.092-9.071-3.8-9.071-5.475-3.72-5.475,3.955S-3.746,16.873.092,16.873,5.658,11.63,5.658,3.955m-20.106,0C-14.448-3.559-7.854-10.1.092-10.1S14.63-3.559,14.63,3.955,8.037,17.9.092,17.9s-14.54-6.431-14.54-13.944" transform="translate(14.448 10.098)" fill="#fff"/>
      </g>
      <g id="Group_9876" data-name="Group 9876" transform="translate(184.129 7.084)">
        <path id="Path_5083" data-name="Path 5083" d="M.4,11.819a21.7,21.7,0,0,0,1.3-8.378V-18.342c0-4.054-.758-6.324-2.7-8.593v-.107l11.4-3.135V3.441a22.08,22.08,0,0,0,1.3,8.378v.109H.4Z" transform="translate(1.01 30.178)" fill="#fff"/>
      </g>
      <g id="Group_9877" data-name="Group 9877" transform="translate(199.695 7.084)">
        <path id="Path_5084" data-name="Path 5084" d="M5.354,10.267V-4.6c-.487-3.892-2-5.729-4.324-5.729C-2.375-10.326-4.7-6.488-4.7,1.781c0,7.081,1.944,10.486,5.458,10.486a6.27,6.27,0,0,0,4.6-2M-3.51,16.7c-6.162,0-10.162-5.244-10.162-12.757C-13.672-4.218-8.807-11.3.542-11.3a15.329,15.329,0,0,1,4.812.7v-3.73c0-4.108-.757-6.378-2.7-8.649v-.107l11.406-3.135V4.537c0,6.055.973,7.622,2.757,9.567v.109l-11.3,2.433v-5.3H5.409A10.277,10.277,0,0,1-3.51,16.7" transform="translate(13.672 26.217)" fill="#fff"/>
      </g>
      <g id="Group_9878" data-name="Group 9878" transform="translate(253.092 40.379)">
        <path id="Path_5085" data-name="Path 5085" d="M0,1.278a4.566,4.566,0,0,1,4.541-4.54,4.567,4.567,0,0,1,4.54,4.54,4.568,4.568,0,0,1-4.54,4.541A4.567,4.567,0,0,1,0,1.278" transform="translate(0 3.262)" fill="#fff"/>
      </g>
    </g>
    <path id="Path_5087" data-name="Path 5087" d="M166.487-14.643h13.05v-.9h-13.05Z" transform="translate(73.78 8.189)" fill="#fff"/>
    <g id="Group_9882" data-name="Group 9882" transform="translate(0 -35.929)" clip-path="url(#clip-path)">
      <g id="Group_9880" data-name="Group 9880" transform="translate(234.716 16.766)">
        <path id="Path_5088" data-name="Path 5088" d="M4.411,8.121a5.139,5.139,0,0,1-3.081.918c-2.163,0-3.891-1.026-3.891-4.27V-7.879H3.87V-9.068H-2.561V-20.735h-.6l-8.108,5.078V4.985c0,5.406,3.081,7.513,7.459,7.513,4.27,0,7.189-2.107,8.378-4.215Z" transform="translate(11.264 20.735)" fill="#fff"/>
      </g>
      <g id="Group_9881" data-name="Group 9881" transform="translate(45.46 -0.001)">
        <path id="Path_5089" data-name="Path 5089" d="M2.009,4.493A6.409,6.409,0,0,0,6.4,2.921V-.461A5.177,5.177,0,0,1,2.478,1.582c-2.417,0-4.155-2-4.155-5.071,0-3.03,1.667-5.073,4.109-5.073A5.221,5.221,0,0,1,6.376-6.519V-9.9a6.425,6.425,0,0,0-4.367-1.574c-4.25,0-7.138,3.241-7.138,7.984,0,4.766,2.888,7.982,7.138,7.982M13.26,2.662h.212l.117,1.6h3.146a14.592,14.592,0,0,1-.283-3.24v-4.25c0-2.419-1.6-3.9-4.155-3.9A6.552,6.552,0,0,0,8.118-5.673v2.723a5.289,5.289,0,0,1,3.639-1.9c.939,0,1.5.447,1.5,1.175,0,.774-.611,1.291-2.207,1.644C8.705-1.494,7.366-.32,7.366,1.487a2.917,2.917,0,0,0,3.028,3.006A3.19,3.19,0,0,0,13.26,2.662m.07-4.274V.15c0,1.337-.751,2.136-1.737,2.136a1.1,1.1,0,0,1-1.175-1.127c0-.728.516-1.173,1.432-1.549A2.879,2.879,0,0,0,13.33-1.612m8.135,5.87c-.093-.939-.21-2.324-.21-3.428V-11.238H17.826c.164,1.808.212,3.194.212,4.343V4.258Zm8.382,0V-1.189h2.114c2.981,0,4.883-2,4.883-5.095a4.69,4.69,0,0,0-5.025-4.954H26.443v15.5ZM31.7-8.467A1.971,1.971,0,0,1,33.65-6.236,1.991,1.991,0,0,1,31.7-3.983H29.847V-8.467ZM42.363-7.128c-3.192,0-5.118,2.324-5.118,5.823,0,3.475,1.95,5.8,5.118,5.8,3.146,0,5.118-2.348,5.118-5.8,0-3.5-1.948-5.823-5.118-5.823m0,2.581c1.269,0,2,1.127,2,3.241s-.728,3.263-2,3.263c-1.29,0-2-1.151-2-3.263s.706-3.241,2-3.241m10.048,8.8C52.316,3.319,52.2,1.934,52.2.83V-11.238H48.772c.164,1.808.21,3.194.21,4.343V4.258Zm2.967,4.109h3.358L64.206-6.895H60.591L58.829.361h-.164L56.881-6.895H53.218L57.069,3.813Z" transform="translate(5.129 11.473)" fill="#f19c00"/>
      </g>
    </g>
  </g>
</svg>
